<svg width="20" height="21" viewBox="0 0 20 21" fill="none" xmlns="http://www.w3.org/2000/svg">
<path fill-rule="evenodd" clip-rule="evenodd" d="M10.1249 3.02475C6.03251 3.02475 2.715 6.34227 2.715 10.4346C2.715 14.527 6.03251 17.8445 10.1249 17.8445C14.2172 17.8445 17.5348 14.527 17.5348 10.4346C17.5348 6.34227 14.2172 3.02475 10.1249 3.02475ZM1.06836 10.4346C1.06836 5.43285 5.1231 1.37811 10.1249 1.37811C15.1267 1.37811 19.1814 5.43285 19.1814 10.4346C19.1814 15.4364 15.1267 19.4911 10.1249 19.4911C5.1231 19.4911 1.06836 15.4364 1.06836 10.4346Z" fill="#767676"/>
<path fill-rule="evenodd" clip-rule="evenodd" d="M10.1251 4.67139C10.5798 4.67139 10.9484 5.04 10.9484 5.49471V9.92578L13.7866 11.3449C14.1933 11.5482 14.3581 12.0428 14.1548 12.4495C13.9514 12.8562 13.4569 13.021 13.0502 12.8177L9.75688 11.171C9.47795 11.0316 9.30176 10.7465 9.30176 10.4346V5.49471C9.30176 5.04 9.67037 4.67139 10.1251 4.67139Z" fill="#767676"/>
</svg>
