<svg width="21" height="21" viewBox="0 0 21 21" fill="none" xmlns="http://www.w3.org/2000/svg">
<path fill-rule="evenodd" clip-rule="evenodd" d="M9.86933 1.55154C10.1666 1.3203 10.583 1.3203 10.8803 1.55154L18.2901 7.31478C18.4907 7.47076 18.608 7.7106 18.608 7.96467V17.0212C18.608 17.6763 18.3478 18.3045 17.8846 18.7677C17.4214 19.2309 16.7931 19.4911 16.138 19.4911H4.61156C3.95649 19.4911 3.32824 19.2309 2.86504 18.7677C2.40183 18.3045 2.1416 17.6763 2.1416 17.0212V7.96467C2.1416 7.7106 2.2589 7.47076 2.45945 7.31478L9.86933 1.55154ZM3.78824 8.36734V17.0212C3.78824 17.2395 3.87498 17.449 4.02939 17.6034C4.18379 17.7578 4.3932 17.8445 4.61156 17.8445H16.138C16.3564 17.8445 16.5658 17.7578 16.7202 17.6034C16.8746 17.449 16.9614 17.2395 16.9614 17.0212V8.36734L10.3748 3.24446L3.78824 8.36734Z" fill="#767676"/>
<path fill-rule="evenodd" clip-rule="evenodd" d="M7.08203 10.4346C7.08203 9.97994 7.45064 9.61133 7.90535 9.61133H12.8453C13.3 9.61133 13.6686 9.97994 13.6686 10.4346V18.6678C13.6686 19.1226 13.3 19.4912 12.8453 19.4912C12.3906 19.4912 12.0219 19.1226 12.0219 18.6678V11.258H8.72867V18.6678C8.72867 19.1226 8.36006 19.4912 7.90535 19.4912C7.45064 19.4912 7.08203 19.1226 7.08203 18.6678V10.4346Z" fill="#767676"/>
</svg>
