<svg width="21" height="21" viewBox="0 0 21 21" fill="none" xmlns="http://www.w3.org/2000/svg">
<path fill-rule="evenodd" clip-rule="evenodd" d="M4.42057 13.287C5.19258 12.515 6.23965 12.0813 7.33144 12.0813H13.918C15.0098 12.0813 16.0569 12.515 16.8289 13.287C17.6009 14.059 18.0346 15.1061 18.0346 16.1979V17.8445C18.0346 18.2992 17.666 18.6679 17.2113 18.6679C16.7566 18.6679 16.388 18.2992 16.388 17.8445V16.1979C16.388 15.5428 16.1277 14.9146 15.6645 14.4514C15.2013 13.9882 14.5731 13.7279 13.918 13.7279H7.33144C6.67637 13.7279 6.04812 13.9882 5.58492 14.4514C5.12171 14.9146 4.86148 15.5428 4.86148 16.1979V17.8445C4.86148 18.2992 4.49287 18.6679 4.03816 18.6679C3.58346 18.6679 3.21484 18.2992 3.21484 17.8445V16.1979C3.21484 15.1061 3.64856 14.059 4.42057 13.287Z" fill="#767676"/>
<path fill-rule="evenodd" clip-rule="evenodd" d="M10.6254 3.84812C9.26127 3.84812 8.15543 4.95395 8.15543 6.31808C8.15543 7.6822 9.26127 8.78803 10.6254 8.78803C11.9895 8.78803 13.0953 7.6822 13.0953 6.31808C13.0953 4.95395 11.9895 3.84812 10.6254 3.84812ZM6.50879 6.31808C6.50879 4.04454 8.35185 2.20148 10.6254 2.20148C12.8989 2.20148 14.742 4.04454 14.742 6.31808C14.742 8.59161 12.8989 10.4347 10.6254 10.4347C8.35185 10.4347 6.50879 8.59161 6.50879 6.31808Z" fill="#767676"/>
</svg>
