<svg width="16" height="19" viewBox="0 0 16 19" fill="none" xmlns="http://www.w3.org/2000/svg">
<path d="M9.30383 2.10985V1.47004C9.30509 1.09041 9.1664 0.766848 8.88775 0.499344C8.6091 0.231839 8.27174 0.0983918 7.87566 0.0990011C7.47958 0.0996105 7.14254 0.233058 6.86452 0.499344C6.58651 0.765629 6.4475 1.08919 6.4475 1.47004L9.30383 2.10985ZM9.30383 2.10985C10.5733 2.41453 11.6048 3.05831 12.3982 4.04119C13.1916 5.02407 13.5883 6.1474 13.5883 7.4112V13.7637V13.8094H13.634M9.30383 2.10985L13.634 13.8094M13.634 13.8094H14.5404C14.8102 13.8094 15.0365 13.8971 15.2193 14.0726C15.4021 14.2481 15.4932 14.465 15.4925 14.7234C15.4919 14.9818 15.4005 15.199 15.2183 15.3751C15.0362 15.5512 14.8102 15.6386 14.5404 15.6374H1.2109C0.941137 15.6374 0.71517 15.5497 0.533 15.3742C0.35083 15.1987 0.259427 14.9818 0.258792 14.7234C0.258158 14.465 0.34956 14.2481 0.533 14.0726C0.716439 13.8971 0.942406 13.8094 1.2109 13.8094H13.634ZM2.16301 13.8551H2.20871V13.8094V7.4112C2.20871 6.15723 2.60185 5.04403 3.3887 4.06991C4.17556 3.09575 5.19814 2.4573 6.45818 2.15429L6.4932 2.14587V2.10985V1.47004C6.4932 1.10181 6.62701 0.790119 6.89613 0.532348C7.16539 0.274451 7.49103 0.145294 7.87573 0.144702C8.26032 0.144111 8.58622 0.273223 8.8561 0.532312C9.12592 0.791333 9.25935 1.103 9.25812 1.46988V1.47004V2.10985V2.14589L9.29316 2.15429C10.5532 2.4567 11.5758 3.09514 12.3626 4.06989C13.1495 5.04464 13.5426 6.15785 13.5426 7.4112V13.8094V13.8551H13.5883H14.5404C14.7992 13.8551 15.0139 13.9388 15.1876 14.1056C15.3612 14.2722 15.4474 14.4771 15.4468 14.7233C15.4462 14.9696 15.3597 15.1749 15.1866 15.3422C15.0136 15.5095 14.7993 15.5929 14.5406 15.5917H14.5404H1.2109C0.952096 15.5917 0.737756 15.508 0.564707 15.3413C0.391663 15.1746 0.305098 14.9696 0.304493 14.7233C0.303889 14.4772 0.390372 14.2723 0.564592 14.1056C0.739001 13.9388 0.953429 13.8551 1.2109 13.8551H2.16301ZM7.87572 18.3338H7.87566C7.36362 18.3338 6.92688 18.1594 6.56293 17.81C6.21041 17.4716 6.02927 17.068 6.01773 16.5971H9.73365C9.72269 17.0674 9.54186 17.471 9.18931 17.81C8.82538 18.16 8.38837 18.3344 7.87572 18.3338ZM4.02153 13.8094V13.8551H4.06723H11.6841H11.7298V13.8094V7.4112C11.7298 6.39293 11.3515 5.52044 10.597 4.79611C9.84257 4.07183 8.93461 3.7094 7.87566 3.7094C6.81672 3.7094 5.90876 4.07183 5.15431 4.79611C4.3998 5.52044 4.02153 6.39293 4.02153 7.4112V13.8094Z" fill="#767676" stroke="white" stroke-width="0.0914024"/>
</svg>
