<svg width="17" height="17" viewBox="0 0 17 17" fill="none" xmlns="http://www.w3.org/2000/svg">
<path d="M7.33366 13.8333C8.81281 13.833 10.2493 13.3379 11.4145 12.4267L15.0778 16.09L16.2562 14.9117L12.5928 11.2483C13.5045 10.0831 14 8.6462 14.0003 7.16667C14.0003 3.49083 11.0095 0.5 7.33366 0.5C3.65783 0.5 0.666992 3.49083 0.666992 7.16667C0.666992 10.8425 3.65783 13.8333 7.33366 13.8333ZM7.33366 2.16667C10.0912 2.16667 12.3337 4.40917 12.3337 7.16667C12.3337 9.92417 10.0912 12.1667 7.33366 12.1667C4.57616 12.1667 2.33366 9.92417 2.33366 7.16667C2.33366 4.40917 4.57616 2.16667 7.33366 2.16667Z" fill="#767676"/>
</svg>
