<svg width="15" height="15" viewBox="0 0 15 15" fill="none" xmlns="http://www.w3.org/2000/svg">
<path d="M0 0.642857C0 0.472361 0.067734 0.308848 0.188302 0.188288C0.308869 0.0677293 0.472394 0 0.642902 0H1.12122C1.93556 0 2.42417 0.547714 2.70276 1.05686C2.88877 1.39629 3.02335 1.78971 3.12879 2.14629L3.21451 2.14286H13.9278C14.6393 2.14286 15.1536 2.82343 14.9582 3.50829L13.3912 9.00171C13.2507 9.49445 12.9535 9.92799 12.5445 10.2367C12.1356 10.5454 11.6372 10.7125 11.1248 10.7126H6.02614C5.50967 10.7126 5.00748 10.543 4.59677 10.2299C4.18606 9.91677 3.88956 9.47744 3.75283 8.97943L3.10136 6.60343L2.02128 2.96229L2.02043 2.95543C1.8867 2.46943 1.76155 2.01429 1.57468 1.67486C1.39553 1.34486 1.25152 1.28571 1.12208 1.28571H0.642902C0.472394 1.28571 0.308869 1.21799 0.188302 1.09743C0.067734 0.976867 0 0.813353 0 0.642857ZM4.34859 6.29143L4.99235 8.63914C5.12093 9.10371 5.54353 9.42686 6.02614 9.42686H11.1248C11.3577 9.42685 11.5842 9.35097 11.7702 9.21069C11.9561 9.07041 12.0912 8.87338 12.1551 8.64943L13.6441 3.42857H3.50167L4.33659 6.246L4.34859 6.29143ZM7.28622 13.2857C7.28622 13.7404 7.1056 14.1764 6.78409 14.4979C6.46257 14.8194 6.02651 15 5.57182 15C5.11713 15 4.68106 14.8194 4.35955 14.4979C4.03804 14.1764 3.85741 13.7404 3.85741 13.2857C3.85741 12.8311 4.03804 12.395 4.35955 12.0735C4.68106 11.752 5.11713 11.5714 5.57182 11.5714C6.02651 11.5714 6.46257 11.752 6.78409 12.0735C7.1056 12.395 7.28622 12.8311 7.28622 13.2857ZM6.00042 13.2857C6.00042 13.1721 5.95526 13.063 5.87489 12.9827C5.79451 12.9023 5.68549 12.8571 5.57182 12.8571C5.45815 12.8571 5.34913 12.9023 5.26875 12.9827C5.18837 13.063 5.14322 13.1721 5.14322 13.2857C5.14322 13.3994 5.18837 13.5084 5.26875 13.5888C5.34913 13.6691 5.45815 13.7143 5.57182 13.7143C5.68549 13.7143 5.79451 13.6691 5.87489 13.5888C5.95526 13.5084 6.00042 13.3994 6.00042 13.2857ZM13.2866 13.2857C13.2866 13.7404 13.106 14.1764 12.7845 14.4979C12.463 14.8194 12.0269 15 11.5722 15C11.1175 15 10.6815 14.8194 10.36 14.4979C10.0385 14.1764 9.85783 13.7404 9.85783 13.2857C9.85783 12.8311 10.0385 12.395 10.36 12.0735C10.6815 11.752 11.1175 11.5714 11.5722 11.5714C12.0269 11.5714 12.463 11.752 12.7845 12.0735C13.106 12.395 13.2866 12.8311 13.2866 13.2857ZM12.0008 13.2857C12.0008 13.1721 11.9557 13.063 11.8753 12.9827C11.7949 12.9023 11.6859 12.8571 11.5722 12.8571C11.4586 12.8571 11.3495 12.9023 11.2692 12.9827C11.1888 13.063 11.1436 13.1721 11.1436 13.2857C11.1436 13.3994 11.1888 13.5084 11.2692 13.5888C11.3495 13.6691 11.4586 13.7143 11.5722 13.7143C11.6859 13.7143 11.7949 13.6691 11.8753 13.5888C11.9557 13.5084 12.0008 13.3994 12.0008 13.2857Z" fill="white"/>
</svg>
