<svg width="19" height="24" viewBox="0 0 19 24" fill="none" xmlns="http://www.w3.org/2000/svg">
<path d="M6.12903 17.8028L12.871 10.9859C13.7996 11.9249 14.2639 13.061 14.2639 14.3944C14.2639 15.7277 13.7996 16.8638 12.871 17.8028C11.9423 18.7418 10.8187 19.2113 9.5 19.2113C8.18133 19.2113 7.05767 18.7418 6.12903 17.8028ZM16.6598 0C17.2913 0 17.8392 0.234742 18.3035 0.704225C18.7678 1.17371 19 1.7277 19 2.3662V21.6338C19 22.2723 18.7678 22.8263 18.3035 23.2958C17.8392 23.7653 17.2913 24 16.6598 24H2.39589C1.72727 24 1.1608 23.7653 0.696481 23.2958C0.23216 22.8263 0 22.2723 0 21.6338V2.3662C0 1.7277 0.23216 1.17371 0.696481 0.704225C1.1608 0.234742 1.72727 0 2.39589 0H16.6598ZM7.13196 2.3662C6.79765 2.3662 6.51906 2.48826 6.29619 2.73239C6.07331 2.97653 5.96188 3.25822 5.96188 3.57746C5.96188 3.89671 6.07331 4.1784 6.29619 4.42253C6.51906 4.66667 6.79765 4.78873 7.13196 4.78873C7.46628 4.78873 7.74487 4.66667 7.96774 4.42253C8.19062 4.1784 8.30205 3.89671 8.30205 3.57746C8.30205 3.25822 8.19062 2.97653 7.96774 2.73239C7.74487 2.48826 7.46628 2.3662 7.13196 2.3662ZM3.56598 2.3662C3.23167 2.3662 2.95308 2.48826 2.73021 2.73239C2.50733 2.97653 2.39589 3.25822 2.39589 3.57746C2.39589 3.89671 2.50733 4.1784 2.73021 4.42253C2.95308 4.66667 3.23167 4.78873 3.56598 4.78873C3.90029 4.78873 4.17889 4.66667 4.40176 4.42253C4.62463 4.1784 4.73607 3.89671 4.73607 3.57746C4.73607 3.25822 4.62463 2.97653 4.40176 2.73239C4.17889 2.48826 3.90029 2.3662 3.56598 2.3662ZM9.52786 21.6338C11.4966 21.6338 13.1774 20.9296 14.5704 19.5211C15.9633 18.1127 16.6598 16.4131 16.6598 14.4225C16.6598 12.4319 15.9633 10.7324 14.5704 9.32394C13.1774 7.91549 11.4966 7.21127 9.52786 7.21127C7.55914 7.21127 5.8783 7.91549 4.48534 9.32394C3.09238 10.7324 2.39589 12.4319 2.39589 14.4225C2.39589 16.4131 3.09238 18.1127 4.48534 19.5211C5.8783 20.9296 7.55914 21.6338 9.52786 21.6338Z" fill="#E0E0E0"/>
</svg>
